<svg width="14" height="20" viewBox="0 0 14 20" fill="none" xmlns="http://www.w3.org/2000/svg">
<path d="M2.61114 18.1662C2.09167 18.1662 1.64698 17.9812 1.27705 17.6113C0.90713 17.2414 0.722168 16.7967 0.722168 16.2772V5.88786C0.722168 5.36839 0.90713 4.9237 1.27705 4.55377C1.64698 4.18385 2.09167 3.99889 2.61114 3.99889H4.50011V2.10992C4.50011 1.59045 4.68507 1.14576 5.05499 0.775832C5.42492 0.405909 5.86961 0.220947 6.38908 0.220947H8.27805C8.79751 0.220947 9.24221 0.405909 9.61213 0.775832C9.98206 1.14576 10.167 1.59045 10.167 2.10992V3.99889H12.056C12.5755 3.99889 13.0201 4.18385 13.3901 4.55377C13.76 4.9237 13.945 5.36839 13.945 5.88786V16.2772C13.945 16.7967 13.76 17.2414 13.3901 17.6113C13.0201 17.9812 12.5755 18.1662 12.056 18.1662C12.056 18.4338 11.9655 18.6581 11.7844 18.8391C11.6034 19.0201 11.3791 19.1106 11.1115 19.1106C10.8439 19.1106 10.6196 19.0201 10.4386 18.8391C10.2575 18.6581 10.167 18.4338 10.167 18.1662H4.50011C4.50011 18.4338 4.40959 18.6581 4.22857 18.8391C4.04754 19.0201 3.82323 19.1106 3.55562 19.1106C3.28802 19.1106 3.0637 19.0201 2.88268 18.8391C2.70165 18.6581 2.61114 18.4338 2.61114 18.1662ZM4.50011 15.3327H6.38908V6.83234H4.50011V15.3327ZM8.27805 15.3327H10.167V6.83234H8.27805V15.3327ZM6.38908 3.99889H8.27805V2.10992H6.38908V3.99889Z" fill="white"/>
</svg>
