<svg width="23" height="23" viewBox="0 0 23 23" fill="none" xmlns="http://www.w3.org/2000/svg">
<mask id="mask0_123_3292" style="mask-type:alpha" maskUnits="userSpaceOnUse" x="0" y="0" width="23" height="23">
<rect x="0.0961914" y="0.332031" width="22.6676" height="22.6676" fill="white"/>
</mask>
<g mask="url(#mask0_123_3292)">
<path d="M5.59782 21.1106L6.87288 18.23C6.6525 18.0568 6.43999 17.8876 6.23535 17.7223C6.03071 17.557 5.83394 17.3799 5.64505 17.191C5.51911 17.2383 5.39712 17.2737 5.27906 17.2973C5.161 17.3209 5.03113 17.3327 4.88946 17.3327C4.36999 17.3327 3.9253 17.1477 3.55537 16.7778C3.18545 16.4079 3.00049 15.9632 3.00049 15.4437C3.00049 15.1289 3.06739 14.8416 3.20119 14.5819C3.33499 14.3222 3.51996 14.1057 3.75608 13.9326C3.63014 13.5705 3.54357 13.2045 3.49634 12.8346C3.44912 12.4647 3.42551 12.0751 3.42551 11.6658C3.42551 11.2565 3.44912 10.8669 3.49634 10.497C3.54357 10.1271 3.63014 9.76109 3.75608 9.39903C3.51996 9.22588 3.33499 9.00943 3.20119 8.7497C3.06739 8.48997 3.00049 8.20269 3.00049 7.88786C3.00049 7.36839 3.18545 6.9237 3.55537 6.55377C3.9253 6.18385 4.36999 5.99889 4.88946 5.99889C5.03113 5.99889 5.161 6.01069 5.27906 6.03431C5.39712 6.05792 5.51911 6.09334 5.64505 6.14056C6.16451 5.57387 6.75875 5.10163 7.42776 4.72383C8.09677 4.34604 8.80907 4.06269 9.56466 3.8738C9.64337 3.40155 9.85981 3.00802 10.214 2.69319C10.5682 2.37836 10.9814 2.22095 11.4536 2.22095C11.9259 2.22095 12.3391 2.3823 12.6933 2.705C13.0474 3.02769 13.2639 3.41729 13.3426 3.8738C14.0982 4.06269 14.8105 4.3421 15.4795 4.71203C16.1485 5.08195 16.7427 5.54239 17.2622 6.09334C17.3881 6.04611 17.5062 6.01069 17.6164 5.98708C17.7266 5.96347 17.8446 5.95166 17.9706 5.95166C18.49 5.95166 18.9347 6.13662 19.3047 6.50655C19.6746 6.87647 19.8595 7.32117 19.8595 7.84063C19.8595 8.15546 19.7966 8.43487 19.6706 8.67886C19.5447 8.92286 19.3716 9.13143 19.1512 9.30458C19.2771 9.68238 19.3637 10.068 19.4109 10.4616C19.4581 10.8551 19.4818 11.2565 19.4818 11.6658C19.4818 12.0751 19.4581 12.4725 19.4109 12.8582C19.3637 13.2439 19.2771 13.6177 19.1512 13.9798C19.3716 14.1529 19.5447 14.3615 19.6706 14.6055C19.7966 14.8495 19.8595 15.1289 19.8595 15.4437C19.8595 15.9632 19.6746 16.4079 19.3047 16.7778C18.9347 17.1477 18.49 17.3327 17.9706 17.3327C17.8446 17.3327 17.7266 17.3209 17.6164 17.2973C17.5062 17.2737 17.3881 17.2383 17.2622 17.191C17.0733 17.3799 16.8805 17.5649 16.6837 17.7459C16.4869 17.9269 16.2705 18.104 16.0344 18.2772L17.2622 21.1106H15.5149L14.6177 19.0328C14.3973 19.1272 14.1848 19.2099 13.9801 19.2807C13.7755 19.3515 13.563 19.4106 13.3426 19.4578C13.2639 19.9143 13.0474 20.3039 12.6933 20.6266C12.3391 20.9493 11.9259 21.1106 11.4536 21.1106C10.9814 21.1106 10.5682 20.9532 10.214 20.6384C9.85981 20.3236 9.64337 19.93 9.56466 19.4578C9.32854 19.4106 9.10422 19.3515 8.89171 19.2807C8.6792 19.2099 8.46276 19.1272 8.24238 19.0328L7.34512 21.1106H5.59782ZM7.39234 17.0021L8.8563 13.6964C8.63592 13.4131 8.46276 13.0983 8.33683 12.752C8.2109 12.4056 8.14793 12.0436 8.14793 11.6658C8.14793 10.7685 8.47457 9.99327 9.12783 9.34C9.7811 8.68673 10.5564 8.3601 11.4536 8.3601C12.3509 8.3601 13.1262 8.68673 13.7794 9.34C14.4327 9.99327 14.7593 10.7685 14.7593 11.6658C14.7593 12.0436 14.6924 12.4135 14.5586 12.7756C14.4248 13.1376 14.2399 13.4603 14.0037 13.7437L15.4677 17.0021C15.6094 16.8762 15.7471 16.7621 15.8809 16.6598C16.0147 16.5574 16.1446 16.4354 16.2705 16.2938C16.1918 16.1678 16.1406 16.0301 16.117 15.8806C16.0934 15.731 16.0816 15.5854 16.0816 15.4437C16.0816 14.94 16.2548 14.5071 16.6011 14.1451C16.9474 13.783 17.3724 13.5863 17.8761 13.5548C17.9706 13.2399 18.0414 12.929 18.0886 12.6221C18.1359 12.3151 18.1595 11.9964 18.1595 11.6658C18.1595 11.3352 18.1359 11.0086 18.0886 10.6859C18.0414 10.3632 17.9706 10.0444 17.8761 9.7296C17.3724 9.69812 16.9474 9.50135 16.6011 9.1393C16.2548 8.77725 16.0816 8.34436 16.0816 7.84063C16.0816 7.69896 16.1013 7.56122 16.1406 7.42742C16.18 7.29362 16.2233 7.16375 16.2705 7.03782C15.814 6.58132 15.3103 6.19566 14.7593 5.88083C14.2084 5.566 13.6259 5.32201 13.012 5.14885C12.8389 5.41646 12.6185 5.62503 12.3509 5.77457C12.0833 5.92412 11.7842 5.99889 11.4536 5.99889C11.1231 5.99889 10.824 5.92412 10.5564 5.77457C10.2888 5.62503 10.0684 5.41646 9.89523 5.14885C9.24983 5.32201 8.65166 5.56993 8.10071 5.89263C7.54976 6.21533 7.04603 6.6128 6.58953 7.08505C6.63676 7.21098 6.68004 7.34084 6.7194 7.47465C6.75875 7.60845 6.77843 7.74618 6.77843 7.88786C6.77843 8.39158 6.61314 8.82054 6.28257 9.17472C5.952 9.5289 5.53486 9.7296 5.03113 9.77683C4.93668 10.0917 4.86585 10.4025 4.81862 10.7095C4.7714 11.0165 4.74779 11.3352 4.74779 11.6658C4.74779 11.9964 4.7714 12.3151 4.81862 12.6221C4.86585 12.929 4.93668 13.2399 5.03113 13.5548C5.53486 13.5863 5.952 13.783 6.28257 14.1451C6.61314 14.5071 6.77843 14.94 6.77843 15.4437C6.77843 15.5854 6.76662 15.7231 6.74301 15.8569C6.7194 15.9908 6.66824 16.1206 6.58953 16.2465C6.71546 16.3882 6.84533 16.5181 6.97913 16.6361C7.11293 16.7542 7.25067 16.8762 7.39234 17.0021ZM8.80907 17.8049C8.98223 17.8837 9.15932 17.9545 9.34034 18.0175C9.52137 18.0804 9.70633 18.1355 9.89523 18.1827C10.0684 17.9151 10.2888 17.7066 10.5564 17.557C10.824 17.4075 11.1231 17.3327 11.4536 17.3327C11.7842 17.3327 12.0833 17.4075 12.3509 17.557C12.6185 17.7066 12.8389 17.9151 13.012 18.1827C13.2009 18.1355 13.378 18.0804 13.5433 18.0175C13.7086 17.9545 13.8778 17.8837 14.051 17.8049L12.6815 14.7354C12.4926 14.8141 12.2958 14.8731 12.0912 14.9125C11.8865 14.9518 11.674 14.9715 11.4536 14.9715C11.2175 14.9715 10.9932 14.9479 10.7807 14.9007C10.5682 14.8534 10.3675 14.7826 10.1786 14.6881L8.80907 17.8049ZM11.4536 13.0825C11.8314 13.0825 12.162 12.9487 12.4453 12.6811C12.7287 12.4135 12.8704 12.0751 12.8704 11.6658C12.8704 11.288 12.7287 10.9574 12.4453 10.6741C12.162 10.3907 11.8314 10.2491 11.4536 10.2491C11.0444 10.2491 10.7059 10.3907 10.4383 10.6741C10.1707 10.9574 10.0369 11.288 10.0369 11.6658C10.0369 12.0751 10.1707 12.4135 10.4383 12.6811C10.7059 12.9487 11.0444 13.0825 11.4536 13.0825Z" fill="white"/>
</g>
</svg>
