<svg width="22" height="22" viewBox="0 0 22 22" fill="none" xmlns="http://www.w3.org/2000/svg">
<mask id="mask0_123_3299" style="mask-type:alpha" maskUnits="userSpaceOnUse" x="0" y="0" width="22" height="23">
<rect x="0.195312" y="0.239258" width="21.7609" height="21.7609" fill="white"/>
</mask>
<g mask="url(#mask0_123_3299)">
<path d="M6.40631 15.7893L3.50485 14.2026L4.45689 13.2505L6.72365 13.5679L10.2598 10.0317L3.1875 6.17824L4.45689 4.90885L13.1159 7.13028L16.6747 3.6168C16.9316 3.3599 17.2528 3.23145 17.6381 3.23145C18.0235 3.23145 18.3446 3.3599 18.6015 3.6168C18.8584 3.8737 18.9868 4.19482 18.9868 4.58017C18.9868 4.96552 18.8584 5.28664 18.6015 5.54354L15.0653 9.0797L17.2868 17.7387L16.0174 19.0081L12.1639 11.9358L8.62773 15.472L8.94508 17.7387L7.99304 18.6908L6.40631 15.7893Z" fill="white"/>
</g>
</svg>
