<svg width="17" height="17" viewBox="0 0 17 17" fill="none" xmlns="http://www.w3.org/2000/svg">
<path d="M15.1262 16.3402L9.36863 10.5826L10.638 9.31322L16.3956 15.0708L15.1262 16.3402ZM2.74968 15.7055C1.23851 14.2245 0.350691 12.4867 0.0862356 10.4919C-0.17822 8.49719 0.165572 6.63089 1.11761 4.89303C1.16295 5.40683 1.2914 5.98486 1.50296 6.62711C1.71453 7.26936 2.00543 7.94561 2.37567 8.65586C2.74591 9.36611 3.18792 10.0953 3.70172 10.8433C4.21552 11.5913 4.78221 12.328 5.4018 13.0534L2.74968 15.7055ZM6.64852 11.8067C5.92315 11.0813 5.28846 10.2917 4.74444 9.4379C4.20041 8.58408 3.7735 7.75671 3.46371 6.95579C3.15392 6.15487 2.98014 5.42572 2.94236 4.76836C2.90458 4.111 3.04436 3.62365 3.36171 3.3063C3.67906 2.97384 4.16641 2.82272 4.82377 2.85295C5.48113 2.88317 6.21405 3.05318 7.02253 3.36297C7.83101 3.67276 8.66216 4.10344 9.51597 4.65502C10.3698 5.2066 11.1594 5.84507 11.8847 6.57044L6.64852 11.8067ZM13.1315 5.32372C12.4212 4.70414 11.6921 4.145 10.944 3.64631C10.196 3.14763 9.47064 2.70938 8.76794 2.33159C8.06524 1.9538 7.39277 1.65534 6.75052 1.43622C6.10827 1.2171 5.53025 1.08487 5.01645 1.03954C6.7543 0.132829 8.61682 -0.18074 10.604 0.098828C12.5912 0.378396 14.3102 1.24354 15.7609 2.69427L13.1315 5.32372Z" fill="white"/>
</svg>
