<svg width="23" height="20" viewBox="0 0 23 20" fill="none" xmlns="http://www.w3.org/2000/svg">
<path d="M19.4634 4.78687H2.91608C1.77372 4.78687 0.847656 5.71293 0.847656 6.85529V17.1974C0.847656 18.3397 1.77372 19.2658 2.91608 19.2658H19.4634C20.6058 19.2658 21.5319 18.3397 21.5319 17.1974V6.85529C21.5319 5.71293 20.6058 4.78687 19.4634 4.78687Z" stroke="#646363" stroke-linecap="round" stroke-linejoin="round"/>
<path d="M15.3269 19.2657V2.71832C15.3269 2.16974 15.109 1.64363 14.7211 1.25573C14.3332 0.867825 13.8071 0.649902 13.2585 0.649902H9.12164C8.57306 0.649902 8.04695 0.867825 7.65905 1.25573C7.27115 1.64363 7.05322 2.16974 7.05322 2.71832V19.2657" stroke="#646363" stroke-linecap="round" stroke-linejoin="round"/>
</svg>
