<svg width="25" height="24" viewBox="0 0 25 24" fill="none" xmlns="http://www.w3.org/2000/svg">
<path d="M13.4926 0.764744C13.2211 0.493306 12.8529 0.34082 12.4689 0.34082C12.085 0.34082 11.7168 0.493306 11.4453 0.764744L1.31001 10.9C1.04626 11.1731 0.90032 11.5388 0.903619 11.9185C0.906918 12.2981 1.05919 12.6612 1.32764 12.9297C1.59609 13.1981 1.95924 13.3504 2.33888 13.3537C2.71851 13.357 3.08425 13.2111 3.35733 12.9473L3.78156 12.5231V22.0589C3.78156 22.4429 3.93411 22.8112 4.20564 23.0827C4.47717 23.3543 4.84545 23.5068 5.22946 23.5068H8.12525C8.50925 23.5068 8.87753 23.3543 9.14906 23.0827C9.42059 22.8112 9.57314 22.4429 9.57314 22.0589V19.1631C9.57314 18.7791 9.72569 18.4109 9.99722 18.1393C10.2688 17.8678 10.637 17.7152 11.021 17.7152H13.9168C14.3008 17.7152 14.6691 17.8678 14.9406 18.1393C15.2122 18.4109 15.3647 18.7791 15.3647 19.1631V22.0589C15.3647 22.4429 15.5173 22.8112 15.7888 23.0827C16.0603 23.3543 16.4286 23.5068 16.8126 23.5068H19.7084C20.0924 23.5068 20.4607 23.3543 20.7322 23.0827C21.0037 22.8112 21.1563 22.4429 21.1563 22.0589V12.5231L21.5805 12.9473C21.8536 13.2111 22.2193 13.357 22.599 13.3537C22.9786 13.3504 23.3418 13.1981 23.6102 12.9297C23.8787 12.6612 24.0309 12.2981 24.0342 11.9185C24.0375 11.5388 23.8916 11.1731 23.6279 10.9L13.4926 0.764744Z" fill="#FF5B00"/>
</svg>
