<svg width="21" height="21" viewBox="0 0 21 21" fill="none" xmlns="http://www.w3.org/2000/svg">
<path d="M19.8059 19.6508L13.6006 13.4455M15.669 8.27445C15.669 9.22515 15.4818 10.1665 15.1179 11.0449C14.7541 11.9232 14.2209 12.7213 13.5486 13.3935C12.8764 14.0658 12.0783 14.599 11.2 14.9628C10.3216 15.3267 9.38024 15.5139 8.42954 15.5139C7.47884 15.5139 6.53744 15.3267 5.65911 14.9628C4.78078 14.599 3.9827 14.0658 3.31046 13.3935C2.63821 12.7213 2.10495 11.9232 1.74114 11.0449C1.37732 10.1665 1.19006 9.22515 1.19006 8.27445C1.19006 6.35442 1.95279 4.51303 3.31046 3.15537C4.66812 1.7977 6.50951 1.03497 8.42954 1.03497C10.3496 1.03497 12.191 1.7977 13.5486 3.15537C14.9063 4.51303 15.669 6.35442 15.669 8.27445Z" stroke="#FF5B00" stroke-width="2" stroke-linecap="round" stroke-linejoin="round"/>
</svg>
