<svg width="24" height="22" viewBox="0 0 24 22" fill="none" xmlns="http://www.w3.org/2000/svg">
<path d="M20.4637 5.78687H3.91632C2.77396 5.78687 1.8479 6.71293 1.8479 7.85529V18.1974C1.8479 19.3397 2.77396 20.2658 3.91632 20.2658H20.4637C21.606 20.2658 22.5321 19.3397 22.5321 18.1974V7.85529C22.5321 6.71293 21.606 5.78687 20.4637 5.78687Z" stroke="#FF5B00" stroke-width="2" stroke-linecap="round" stroke-linejoin="round"/>
<path d="M16.3268 20.2657V3.71832C16.3268 3.16974 16.1089 2.64363 15.721 2.25573C15.3331 1.86782 14.8069 1.6499 14.2584 1.6499H10.1215C9.57294 1.6499 9.04683 1.86782 8.65893 2.25573C8.27102 2.64363 8.0531 3.16974 8.0531 3.71832V20.2657" stroke="#FF5B00" stroke-width="2" stroke-linecap="round" stroke-linejoin="round"/>
</svg>
