<svg width="23" height="20" viewBox="0 0 23 20" fill="none" xmlns="http://www.w3.org/2000/svg">
<path d="M20.5396 2.31516C20.0114 1.78668 19.3842 1.36746 18.6939 1.08143C18.0036 0.79541 17.2638 0.648193 16.5166 0.648193C15.7694 0.648193 15.0295 0.79541 14.3392 1.08143C13.6489 1.36746 13.0217 1.78668 12.4935 2.31516L11.3972 3.41142L10.301 2.31516C9.23396 1.24817 7.78682 0.648746 6.27787 0.648746C4.76892 0.648746 3.32178 1.24817 2.25479 2.31516C1.18781 3.38215 0.588379 4.82929 0.588379 6.33824C0.588379 7.84719 1.18781 9.29433 2.25479 10.3613L3.35106 11.4576L11.3972 19.5037L19.4434 11.4576L20.5396 10.3613C21.0681 9.83309 21.4873 9.20591 21.7734 8.51562C22.0594 7.82533 22.2066 7.08544 22.2066 6.33824C22.2066 5.59103 22.0594 4.85115 21.7734 4.16086C21.4873 3.47057 21.0681 2.84339 20.5396 2.31516Z" fill="#FF5B00"/>
</svg>
