<svg width="25" height="24" viewBox="0 0 25 24" fill="none" xmlns="http://www.w3.org/2000/svg">
<path d="M22.5944 12.8537C22.3472 12.8559 22.1089 12.7614 21.9305 12.5904L21.5096 12.1695L20.6561 11.316V12.5231V22.0589C20.6561 22.3103 20.5562 22.5514 20.3784 22.7292C20.2007 22.907 19.9596 23.0068 19.7082 23.0068H16.8124C16.561 23.0068 16.3199 22.907 16.1421 22.7292C15.9643 22.5514 15.8645 22.3103 15.8645 22.0589V19.1631C15.8645 18.6465 15.6593 18.1511 15.2939 17.7858C14.9286 17.4205 14.4332 17.2152 13.9166 17.2152H11.0208C10.5042 17.2152 10.0087 17.4205 9.64342 17.7858C9.27812 18.1511 9.0729 18.6465 9.0729 19.1631V22.0589C9.0729 22.3103 8.97303 22.5514 8.79526 22.7292L9.14882 23.0827L8.79526 22.7292C8.6175 22.907 8.3764 23.0068 8.125 23.0068H5.22921C4.97781 23.0068 4.73671 22.907 4.55895 22.7292L4.2054 23.0827L4.55895 22.7292C4.38119 22.5514 4.28132 22.3103 4.28132 22.0589V12.5231V11.316L3.42776 12.1695L3.00694 12.5904C2.82847 12.7613 2.59023 12.8559 2.34298 12.8537C2.09444 12.8516 1.8567 12.7519 1.68095 12.5761L1.32993 12.9272L1.68095 12.5761C1.50521 12.4004 1.40552 12.1626 1.40336 11.9141C1.40121 11.6669 1.49574 11.4286 1.6667 11.2502L11.7985 1.11835C11.7985 1.11833 11.7986 1.11832 11.7986 1.1183C11.9763 0.940628 12.2174 0.84082 12.4687 0.84082C12.72 0.84082 12.961 0.940629 13.1388 1.1183C13.1388 1.11832 13.1388 1.11833 13.1388 1.11835L23.2707 11.2502C23.4416 11.4287 23.5362 11.6669 23.534 11.9141C23.5319 12.1626 23.4322 12.4004 23.2564 12.5761C23.0807 12.7519 22.8429 12.8516 22.5944 12.8537Z" stroke="#646363"/>
</svg>
