<svg width="21" height="21" viewBox="0 0 21 21" fill="none" xmlns="http://www.w3.org/2000/svg">
<path d="M19.8057 19.6507L13.6005 13.4454M15.6689 8.27439C15.6689 9.22509 15.4816 10.1665 15.1178 11.0448C14.754 11.9231 14.2207 12.7212 13.5485 13.3935C12.8762 14.0657 12.0782 14.599 11.1998 14.9628C10.3215 15.3266 9.38012 15.5139 8.42942 15.5139C7.47871 15.5139 6.53732 15.3266 5.65899 14.9628C4.78066 14.599 3.98258 14.0657 3.31033 13.3935C2.63809 12.7212 2.10483 11.9231 1.74101 11.0448C1.3772 10.1665 1.18994 9.22509 1.18994 8.27439C1.18994 6.35436 1.95267 4.51297 3.31033 3.1553C4.668 1.79764 6.50939 1.03491 8.42942 1.03491C10.3494 1.03491 12.1908 1.79764 13.5485 3.1553C14.9062 4.51297 15.6689 6.35436 15.6689 8.27439Z" stroke="#646363" stroke-linecap="round" stroke-linejoin="round"/>
</svg>
