<svg width="23" height="20" viewBox="0 0 23 20" fill="none" xmlns="http://www.w3.org/2000/svg">
<path d="M19.4637 4.78687H2.91632C1.77396 4.78687 0.8479 5.71293 0.8479 6.85529V17.1974C0.8479 18.3397 1.77396 19.2658 2.91632 19.2658H19.4637C20.606 19.2658 21.5321 18.3397 21.5321 17.1974V6.85529C21.5321 5.71293 20.606 4.78687 19.4637 4.78687Z" stroke="#646363" stroke-linecap="round" stroke-linejoin="round"/>
<path d="M15.3268 19.2657V2.71832C15.3268 2.16974 15.1089 1.64363 14.721 1.25573C14.3331 0.867825 13.8069 0.649902 13.2584 0.649902H9.12152C8.57294 0.649902 8.04683 0.867825 7.65893 1.25573C7.27102 1.64363 7.0531 2.16974 7.0531 2.71832V19.2657" stroke="#646363" stroke-linecap="round" stroke-linejoin="round"/>
</svg>
