<svg width="23" height="20" viewBox="0 0 23 20" fill="none" xmlns="http://www.w3.org/2000/svg">
<path d="M20.5401 2.31516C20.0119 1.78668 19.3847 1.36746 18.6944 1.08143C18.0041 0.79541 17.2643 0.648193 16.517 0.648193C15.7698 0.648193 15.03 0.79541 14.3397 1.08143C13.6494 1.36746 13.0222 1.78668 12.494 2.31516L11.3977 3.41142L10.3014 2.31516C9.23445 1.24817 7.78731 0.648746 6.27836 0.648746C4.76941 0.648746 3.32227 1.24817 2.25528 2.31516C1.18829 3.38215 0.588867 4.82929 0.588867 6.33824C0.588867 7.84719 1.18829 9.29433 2.25528 10.3613L3.35154 11.4576L11.3977 19.5037L19.4439 11.4576L20.5401 10.3613C21.0686 9.83309 21.4878 9.20591 21.7738 8.51562C22.0599 7.82533 22.2071 7.08544 22.2071 6.33824C22.2071 5.59104 22.0599 4.85115 21.7738 4.16086C21.4878 3.47057 21.0686 2.84339 20.5401 2.31516Z" stroke="#646363" stroke-linecap="round" stroke-linejoin="round"/>
</svg>
